<svg xmlns="http://www.w3.org/2000/svg" xmlns:xlink="http://www.w3.org/1999/xlink" xmlns:lucid="lucid" width="1680" height="1050.5"><g transform="translate(-40 -47.99999999994924)" lucid:page-tab-id="0_0"><path d="M1440 886.5a8 8 0 0 1 8-8h244a8 8 0 0 1 8 8v184a8 8 0 0 1-8 8h-244a8 8 0 0 1-8-8z" fill="#fff"/><path d="M1440 950.5v33h260v-33M1440 1014.5v33h260v-33" fill="#e6e6e6"/><path d="M1440 918.5v-32a8 8 0 0 1 8-8h244a8 8 0 0 1 8 8v32" fill="#6f7681"/><path d="M1440 886.5a8 8 0 0 1 8-8h244a8 8 0 0 1 8 8v184a8 8 0 0 1-8 8h-244a8 8 0 0 1-8-8zM1440 918.5h260M1569.35 918.5v160" stroke="#3a414a" fill="none"/><use xlink:href="#a" transform="matrix(1,0,0,1,1450,878.4990424361727) translate(93.57499999999999 23.6)"/><use xlink:href="#b" transform="matrix(1,0,0,1,1445,920.9990424361727) translate(25.599999999999994 17.1)"/><use xlink:href="#c" transform="matrix(1,0,0,1,1574.3486762936222,920.9990424361727) translate(30.549999999999997 17.1)"/><use xlink:href="#d" transform="matrix(1,0,0,1,1445,952.9990424361727) translate(46.05 17.1)"/><use xlink:href="#c" transform="matrix(1,0,0,1,1574.3486762936222,952.9990424361727) translate(30.549999999999997 17.1)"/><use xlink:href="#e" transform="matrix(1,0,0,1,1445,984.9990424361727) translate(28.575 17.1)"/><use xlink:href="#f" transform="matrix(1,0,0,1,1574.3486762936222,984.9990424361727) translate(51.025 17.1)"/><use xlink:href="#g" transform="matrix(1,0,0,1,1445,1016.9990424361727) translate(42.525 17.1)"/><use xlink:href="#f" transform="matrix(1,0,0,1,1574.3486762936222,1016.9990424361727) translate(51.025 17.1)"/><use xlink:href="#h" transform="matrix(1,0,0,1,1445,1048.9990424361727) translate(27.549999999999997 17.1)"/><use xlink:href="#i" transform="matrix(1,0,0,1,1574.3486762936222,1048.9990424361727) translate(43.525 17.1)"/><path d="M1440 256a8 8 0 0 1 8-8h244a8 8 0 0 1 8 8v248a8 8 0 0 1-8 8h-244a8 8 0 0 1-8-8z" fill="#fff"/><path d="M1440 320v33h260v-33M1440 384v33h260v-33M1440 448v33h260v-33" fill="#e6e6e6"/><path d="M1440 288v-32a8 8 0 0 1 8-8h244a8 8 0 0 1 8 8v32" fill="#6f7681"/><path d="M1440 256a8 8 0 0 1 8-8h244a8 8 0 0 1 8 8v248a8 8 0 0 1-8 8h-244a8 8 0 0 1-8-8zM1440 288h260M1569.35 288v224" stroke="#3a414a" fill="none"/><use xlink:href="#j" transform="matrix(1,0,0,1,1450,248) translate(101.525 23.6)"/><use xlink:href="#k" transform="matrix(1,0,0,1,1445,290.5) translate(17.074999999999996 17.1)"/><use xlink:href="#l" transform="matrix(1,0,0,1,1574.3486762936222,290.5) translate(19.075000000000003 17.1)"/><use xlink:href="#m" transform="matrix(1,0,0,1,1445,322.5) translate(42.025 17.1)"/><use xlink:href="#f" transform="matrix(1,0,0,1,1574.3486762936222,322.5) translate(51.025 17.1)"/><use xlink:href="#n" transform="matrix(1,0,0,1,1445,354.5) translate(45.5 17.1)"/><use xlink:href="#f" transform="matrix(1,0,0,1,1574.3486762936222,354.5) translate(51.025 17.1)"/><use xlink:href="#o" transform="matrix(1,0,0,1,1445,386.5) translate(39.025 17.1)"/><use xlink:href="#f" transform="matrix(1,0,0,1,1574.3486762936222,386.5) translate(51.025 17.1)"/><use xlink:href="#p" transform="matrix(1,0,0,1,1445,418.5) translate(35.025 17.1)"/><use xlink:href="#f" transform="matrix(1,0,0,1,1574.3486762936222,418.5) translate(51.025 17.1)"/><use xlink:href="#g" transform="matrix(1,0,0,1,1445,450.5) translate(42.525 17.1)"/><use xlink:href="#f" transform="matrix(1,0,0,1,1574.3486762936222,450.5) translate(51.025 17.1)"/><use xlink:href="#q" transform="matrix(1,0,0,1,1445,482.5) translate(24.525 17.1)"/><use xlink:href="#f" transform="matrix(1,0,0,1,1574.3486762936222,482.5) translate(51.025 17.1)"/><path d="M60 886.5a8 8 0 0 1 8-8h244a8 8 0 0 1 8 8v184a8 8 0 0 1-8 8H68a8 8 0 0 1-8-8z" fill="#fff"/><path d="M60 950.5v33h260v-33M60 1014.5v33h260v-33" fill="#e6e6e6"/><path d="M60 918.5v-32a8 8 0 0 1 8-8h244a8 8 0 0 1 8 8v32" fill="#6f7681"/><path d="M60 886.5a8 8 0 0 1 8-8h244a8 8 0 0 1 8 8v184a8 8 0 0 1-8 8H68a8 8 0 0 1-8-8zM60 918.5h260M189.35 918.5v160" stroke="#3a414a" fill="none"/><use xlink:href="#r" transform="matrix(1,0,0,1,70,878.4990424361727) translate(93.05 23.6)"/><use xlink:href="#s" transform="matrix(1,0,0,1,65,920.9990424361727) translate(25.074999999999996 17.1)"/><use xlink:href="#c" transform="matrix(1,0,0,1,194.34867629362213,920.9990424361727) translate(30.549999999999997 17.1)"/><use xlink:href="#t" transform="matrix(1,0,0,1,65,952.9990424361727) translate(37.525 17.1)"/><use xlink:href="#c" transform="matrix(1,0,0,1,194.34867629362213,952.9990424361727) translate(30.549999999999997 17.1)"/><use xlink:href="#u" transform="matrix(1,0,0,1,65,984.9990424361727) translate(29.049999999999997 17.1)"/><use xlink:href="#c" transform="matrix(1,0,0,1,194.34867629362213,984.9990424361727) translate(30.549999999999997 17.1)"/><use xlink:href="#v" transform="matrix(1,0,0,1,65,1016.9990424361727) translate(31.05 17.1)"/><use xlink:href="#i" transform="matrix(1,0,0,1,194.34867629362213,1016.9990424361727) translate(43.525 17.1)"/><use xlink:href="#w" transform="matrix(1,0,0,1,65,1048.9990424361727) translate(23.549999999999997 17.1)"/><use xlink:href="#i" transform="matrix(1,0,0,1,194.34867629362213,1048.9990424361727) translate(43.525 17.1)"/><path d="M60 256a8 8 0 0 1 8-8h244a8 8 0 0 1 8 8v184a8 8 0 0 1-8 8H68a8 8 0 0 1-8-8z" fill="#fff"/><path d="M60 320v33h260v-33M60 384v33h260v-33" fill="#e6e6e6"/><path d="M60 288v-32a8 8 0 0 1 8-8h244a8 8 0 0 1 8 8v32" fill="#6f7681"/><path d="M60 256a8 8 0 0 1 8-8h244a8 8 0 0 1 8 8v184a8 8 0 0 1-8 8H68a8 8 0 0 1-8-8zM60 288h260M189.35 288v160" stroke="#3a414a" fill="none"/><use xlink:href="#x" transform="matrix(1,0,0,1,70,248) translate(96.025 23.6)"/><use xlink:href="#y" transform="matrix(1,0,0,1,65,290.5) translate(28.049999999999997 17.1)"/><use xlink:href="#f" transform="matrix(1,0,0,1,194.34867629362213,290.5) translate(51.025 17.1)"/><use xlink:href="#z" transform="matrix(1,0,0,1,65,322.5) translate(18.075000000000003 17.1)"/><use xlink:href="#c" transform="matrix(1,0,0,1,194.34867629362213,322.5) translate(30.549999999999997 17.1)"/><use xlink:href="#A" transform="matrix(1,0,0,1,65,354.5) translate(18.549999999999997 17.1)"/><use xlink:href="#c" transform="matrix(1,0,0,1,194.34867629362213,354.5) translate(30.549999999999997 17.1)"/><use xlink:href="#B" transform="matrix(1,0,0,1,65,386.5) translate(32.025 17.1)"/><use xlink:href="#C" transform="matrix(1,0,0,1,194.34867629362213,386.5) translate(32.074999999999996 17.1)"/><use xlink:href="#D" transform="matrix(1,0,0,1,65,418.5) translate(41.55 17.1)"/><use xlink:href="#c" transform="matrix(1,0,0,1,194.34867629362213,418.5) translate(30.549999999999997 17.1)"/><path d="M453.15 76a8 8 0 0 1 8-8h836.75a8 8 0 0 1 8 8v25.16a8 8 0 0 1-8 8H461.15a8 8 0 0 1-8-8z" stroke="#000" stroke-opacity="0" stroke-width="2" fill="#fff" fill-opacity="0"/><use xlink:href="#E" transform="matrix(1,0,0,1,457.1465527853429,71.99999999994924) translate(289.81864197530865 25.782777777777778)"/><use xlink:href="#F" transform="matrix(1,0,0,1,457.1465527853429,71.99999999994924) translate(413.42728395061727 25.782777777777778)"/><use xlink:href="#G" transform="matrix(1,0,0,1,457.1465527853429,71.99999999994924) translate(457.0581481481481 25.782777777777778)"/><path d="M628.64 107.8h505.86M628.66 107.8h-1.02M1134.47 107.8h1.03" stroke="#a9afb8" stroke-width="2" fill="none"/><path d="M453.15 117.16a8 8 0 0 1 8-8h837.7a8 8 0 0 1 8 8V120a8 8 0 0 1-8 8h-837.7a8 8 0 0 1-8-8z" stroke="#000" stroke-opacity="0" stroke-width="2" fill="#fff" fill-opacity="0"/><path d="M750 504.66a8 8 0 0 1 8-8h244a8 8 0 0 1 8 8v312a8 8 0 0 1-8 8H758a8 8 0 0 1-8-8z" fill="#fff"/><path d="M750 536.66v-32a8 8 0 0 1 8-8h244a8 8 0 0 1 8 8v32" fill="#e08fff"/><path d="M750 504.66a8 8 0 0 1 8-8h244a8 8 0 0 1 8 8v312a8 8 0 0 1-8 8H758a8 8 0 0 1-8-8zM750 536.66h260M810 536.66v288M917.1 536.66v288" stroke="#3a414a" fill="none"/><use xlink:href="#H" transform="matrix(1,0,0,1,760,496.6569569087784) translate(75.6 23.6)"/><use xlink:href="#I" transform="matrix(1,0,0,1,755,539.1569569087784) translate(13 17.1)"/><use xlink:href="#J" transform="matrix(1,0,0,1,815,539.1569569087784) translate(1.0499999999999972 17.1)"/><use xlink:href="#K" transform="matrix(1,0,0,1,922.1061973525873,539.1569569087784) translate(32.025 17.1)"/><use xlink:href="#L" transform="matrix(1,0,0,1,815,571.1569569087784) translate(9.574999999999996 17.1)"/><use xlink:href="#l" transform="matrix(1,0,0,1,922.1061973525873,571.1569569087784) translate(0.07500000000000284 17.1)"/><use xlink:href="#M" transform="matrix(1,0,0,1,815,603.1569569087784) translate(19.549999999999997 17.1)"/><use xlink:href="#K" transform="matrix(1,0,0,1,922.1061973525873,603.1569569087784) translate(32.025 17.1)"/><use xlink:href="#N" transform="matrix(1,0,0,1,815,635.1569569087784) translate(30.549999999999997 17.1)"/><use xlink:href="#c" transform="matrix(1,0,0,1,922.1061973525873,635.1569569087784) translate(11.549999999999997 17.1)"/><use xlink:href="#O" transform="matrix(1,0,0,1,815,667.1569569087784) translate(17.525 17.1)"/><use xlink:href="#K" transform="matrix(1,0,0,1,922.1061973525873,667.1569569087784) translate(32.025 17.1)"/><use xlink:href="#P" transform="matrix(1,0,0,1,815,699.1569569087784) translate(17.575 17.1)"/><use xlink:href="#K" transform="matrix(1,0,0,1,922.1061973525873,699.1569569087784) translate(32.025 17.1)"/><use xlink:href="#Q" transform="matrix(1,0,0,1,815,731.1569569087784) translate(6.549999999999997 17.1)"/><use xlink:href="#K" transform="matrix(1,0,0,1,922.1061973525873,731.1569569087784) translate(32.025 17.1)"/><use xlink:href="#R" transform="matrix(1,0,0,1,815,763.1569569087784) translate(18.049999999999997 17.1)"/><use xlink:href="#S" transform="matrix(1,0,0,1,922.1061973525873,763.1569569087784) translate(11.549999999999997 17.1)"/><use xlink:href="#T" transform="matrix(1,0,0,1,815,795.1569569087784) translate(4.024999999999999 17.1)"/><use xlink:href="#S" transform="matrix(1,0,0,1,922.1061973525873,795.1569569087784) translate(11.549999999999997 17.1)"/><path d="M749.52 504.66a8 8 0 0 1 8-8h244a8 8 0 0 1 8 8v312a8 8 0 0 1-8 8h-244a8 8 0 0 1-8-8z" fill="#fff"/><path d="M749.52 568.66v33h260v-33M749.52 632.66v33h260v-33M749.52 696.66v33h260v-33M749.52 760.66v33h260v-33" fill="#e6e6e6"/><path d="M749.52 536.66v-32a8 8 0 0 1 8-8h244a8 8 0 0 1 8 8v32" fill="#6f7681"/><path d="M749.52 504.66a8 8 0 0 1 8-8h244a8 8 0 0 1 8 8v312a8 8 0 0 1-8 8h-244a8 8 0 0 1-8-8zM749.52 536.66h260M878.87 536.66v288" stroke="#282c33" fill="none"/><use xlink:href="#U" transform="matrix(1,0,0,1,759.5213070194004,496.6569569087784) translate(75.6 23.6)"/><use xlink:href="#V" transform="matrix(1,0,0,1,754.5213070194004,539.1569569087784) translate(7.624999999999993 17.1)"/><use xlink:href="#f" transform="matrix(1,0,0,1,883.8699833130225,539.1569569087784) translate(51.025 17.1)"/><use xlink:href="#W" transform="matrix(1,0,0,1,754.5213070194004,571.1569569087784) translate(20.574999999999996 17.1)"/><use xlink:href="#l" transform="matrix(1,0,0,1,883.8699833130225,571.1569569087784) translate(19.075000000000003 17.1)"/><use xlink:href="#X" transform="matrix(1,0,0,1,754.5213070194004,603.1569569087784) translate(30.549999999999997 17.1)"/><use xlink:href="#f" transform="matrix(1,0,0,1,883.8699833130225,603.1569569087784) translate(51.025 17.1)"/><use xlink:href="#D" transform="matrix(1,0,0,1,754.5213070194004,635.1569569087784) translate(41.55 17.1)"/><use xlink:href="#c" transform="matrix(1,0,0,1,883.8699833130225,635.1569569087784) translate(30.549999999999997 17.1)"/><use xlink:href="#Y" transform="matrix(1,0,0,1,754.5213070194004,667.1569569087784) translate(28.525 17.1)"/><use xlink:href="#c" transform="matrix(1,0,0,1,883.8699833130225,667.1569569087784) translate(30.549999999999997 17.1)"/><use xlink:href="#e" transform="matrix(1,0,0,1,754.5213070194004,699.1569569087784) translate(28.575 17.1)"/><use xlink:href="#c" transform="matrix(1,0,0,1,883.8699833130225,699.1569569087784) translate(30.549999999999997 17.1)"/><use xlink:href="#Z" transform="matrix(1,0,0,1,754.5213070194004,731.1569569087784) translate(17.549999999999997 17.1)"/><use xlink:href="#f" transform="matrix(1,0,0,1,883.8699833130225,731.1569569087784) translate(51.025 17.1)"/><use xlink:href="#u" transform="matrix(1,0,0,1,754.5213070194004,763.1569569087784) translate(29.049999999999997 17.1)"/><use xlink:href="#c" transform="matrix(1,0,0,1,883.8699833130225,763.1569569087784) translate(30.549999999999997 17.1)"/><use xlink:href="#aa" transform="matrix(1,0,0,1,754.5213070194004,795.1569569087784) translate(15.024999999999999 17.1)"/><use xlink:href="#c" transform="matrix(1,0,0,1,883.8699833130225,795.1569569087784) translate(30.549999999999997 17.1)"/><path d="M320.43 303.86h202.3a12 12 0 0 1 12 12v288.8a12 12 0 0 0 12 12h202.33M321.43 288.86v30M748.06 631.66v-30M1009.95 584.66h202.78a12 12 0 0 0 12-12V315.72a12 12 0 0 1 12-12h202.8M1010.95 569.66v30M1438.52 318.72v-30M749.1 712.66H546.75a12 12 0 0 0-12 12v197.7a12 12 0 0 1-12 12H320.43M748.1 727.66v-30M321.43 919.35v30M1009.98 680.66h202.77a12 12 0 0 1 12 12v229.68a12 12 0 0 0 12 12h202.78M1010.98 665.66v30M1438.53 949.34v-30" stroke="#3a414a" stroke-width="2" fill="none"/><defs><path fill="#fff" d="M137-138c1-29-70-34-71-4 15 46 118 7 119 86 1 83-164 76-172 9l43-7c4 19 20 25 44 25 33 8 57-30 24-41C81-84 22-81 20-136c-2-80 154-74 161-7" id="ab"/><path fill="#fff" d="M110-194c64 0 96 36 96 99 0 64-35 99-97 99-61 0-95-36-95-99 0-62 34-99 96-99zm-1 164c35 0 45-28 45-65 0-40-10-65-43-65-34 0-45 26-45 65 0 36 10 65 43 65" id="ac"/><path fill="#fff" d="M135-194c87-1 58 113 63 194h-50c-7-57 23-157-34-157-59 0-34 97-39 157H25l-1-190h47c2 12-1 28 3 38 12-26 28-41 61-42" id="ad"/><path fill="#fff" d="M195-6C206 82 75 100 31 46c-4-6-6-13-8-21l49-6c3 16 16 24 34 25 40 0 42-37 40-79-11 22-30 35-61 35-53 0-70-43-70-97 0-56 18-96 73-97 30 0 46 14 59 34l2-30h47zm-90-29c32 0 41-27 41-63 0-35-9-62-40-62-32 0-39 29-40 63 0 36 9 62 39 62" id="ae"/><g id="a"><use transform="matrix(0.05,0,0,0.05,0,0)" xlink:href="#ab"/><use transform="matrix(0.05,0,0,0.05,10,0)" xlink:href="#ac"/><use transform="matrix(0.05,0,0,0.05,20.950000000000003,0)" xlink:href="#ad"/><use transform="matrix(0.05,0,0,0.05,31.900000000000006,0)" xlink:href="#ae"/><use transform="matrix(0.05,0,0,0.05,42.85000000000001,0)" xlink:href="#ab"/></g><path fill="#3a414a" d="M137-138c1-29-70-34-71-4 15 46 118 7 119 86 1 83-164 76-172 9l43-7c4 19 20 25 44 25 33 8 57-30 24-41C81-84 22-81 20-136c-2-80 154-74 161-7" id="af"/><path fill="#3a414a" d="M110-194c64 0 96 36 96 99 0 64-35 99-97 99-61 0-95-36-95-99 0-62 34-99 96-99zm-1 164c35 0 45-28 45-65 0-40-10-65-43-65-34 0-45 26-45 65 0 36 10 65 43 65" id="ag"/><path fill="#3a414a" d="M135-194c87-1 58 113 63 194h-50c-7-57 23-157-34-157-59 0-34 97-39 157H25l-1-190h47c2 12-1 28 3 38 12-26 28-41 61-42" id="ah"/><path fill="#3a414a" d="M195-6C206 82 75 100 31 46c-4-6-6-13-8-21l49-6c3 16 16 24 34 25 40 0 42-37 40-79-11 22-30 35-61 35-53 0-70-43-70-97 0-56 18-96 73-97 30 0 46 14 59 34l2-30h47zm-90-29c32 0 41-27 41-63 0-35-9-62-40-62-32 0-39 29-40 63 0 36 9 62 39 62" id="ai"/><path fill="#3a414a" d="M-4 44V30h207v14H-4" id="aj"/><path fill="#3a414a" d="M25-224v-37h50v37H25zM25 0v-190h50V0H25" id="ak"/><path fill="#3a414a" d="M88-194c31-1 46 15 58 34l-1-101h50l1 261h-48c-2-10 0-23-3-31C134-8 116 4 84 4 32 4 16-41 15-95c0-56 19-97 73-99zm17 164c33 0 40-30 41-66 1-37-9-64-41-64s-38 30-39 65c0 43 13 65 39 65" id="al"/><g id="b"><use transform="matrix(0.05,0,0,0.05,0,0)" xlink:href="#af"/><use transform="matrix(0.05,0,0,0.05,10,0)" xlink:href="#ag"/><use transform="matrix(0.05,0,0,0.05,20.950000000000003,0)" xlink:href="#ah"/><use transform="matrix(0.05,0,0,0.05,31.900000000000006,0)" xlink:href="#ai"/><use transform="matrix(0.05,0,0,0.05,42.85000000000001,0)" xlink:href="#aj"/><use transform="matrix(0.05,0,0,0.05,52.85,0)" xlink:href="#ak"/><use transform="matrix(0.05,0,0,0.05,57.85,0)" xlink:href="#al"/></g><path fill="#3a414a" d="M108 0H70L1-190h34L89-25l56-165h34" id="am"/><path fill="#3a414a" d="M141-36C126-15 110 5 73 4 37 3 15-17 15-53c-1-64 63-63 125-63 3-35-9-54-41-54-24 1-41 7-42 31l-33-3c5-37 33-52 76-52 45 0 72 20 72 64v82c-1 20 7 32 28 27v20c-31 9-61-2-59-35zM48-53c0 20 12 33 32 33 41-3 63-29 60-74-43 2-92-5-92 41" id="an"/><path fill="#3a414a" d="M114-163C36-179 61-72 57 0H25l-1-190h30c1 12-1 29 2 39 6-27 23-49 58-41v29" id="ao"/><path fill="#3a414a" d="M96-169c-40 0-48 33-48 73s9 75 48 75c24 0 41-14 43-38l32 2c-6 37-31 61-74 61-59 0-76-41-82-99-10-93 101-131 147-64 4 7 5 14 7 22l-32 3c-4-21-16-35-41-35" id="ap"/><path fill="#3a414a" d="M106-169C34-169 62-67 57 0H25v-261h32l-1 103c12-21 28-36 61-36 89 0 53 116 60 194h-32v-121c2-32-8-49-39-48" id="aq"/><g id="c"><use transform="matrix(0.05,0,0,0.05,0,0)" xlink:href="#am"/><use transform="matrix(0.05,0,0,0.05,9,0)" xlink:href="#an"/><use transform="matrix(0.05,0,0,0.05,19,0)" xlink:href="#ao"/><use transform="matrix(0.05,0,0,0.05,24.95,0)" xlink:href="#ap"/><use transform="matrix(0.05,0,0,0.05,33.95,0)" xlink:href="#aq"/><use transform="matrix(0.05,0,0,0.05,43.95,0)" xlink:href="#an"/><use transform="matrix(0.05,0,0,0.05,53.95,0)" xlink:href="#ao"/></g><path fill="#3a414a" d="M59-47c-2 24 18 29 38 22v24C64 9 27 4 27-40v-127H5v-23h24l9-43h21v43h35v23H59v120" id="ar"/><path fill="#3a414a" d="M24-231v-30h32v30H24zM24 0v-190h32V0H24" id="as"/><path fill="#3a414a" d="M24 0v-261h32V0H24" id="at"/><path fill="#3a414a" d="M100-194c63 0 86 42 84 106H49c0 40 14 67 53 68 26 1 43-12 49-29l28 8c-11 28-37 45-77 45C44 4 14-33 15-96c1-61 26-98 85-98zm52 81c6-60-76-77-97-28-3 7-6 17-6 28h103" id="au"/><g id="d"><use transform="matrix(0.05,0,0,0.05,0,0)" xlink:href="#ar"/><use transform="matrix(0.05,0,0,0.05,5,0)" xlink:href="#as"/><use transform="matrix(0.05,0,0,0.05,8.95,0)" xlink:href="#ar"/><use transform="matrix(0.05,0,0,0.05,13.949999999999998,0)" xlink:href="#at"/><use transform="matrix(0.05,0,0,0.05,17.9,0)" xlink:href="#au"/></g><path fill="#3a414a" d="M135-143c-3-34-86-38-87 0 15 53 115 12 119 90S17 21 10-45l28-5c4 36 97 45 98 0-10-56-113-15-118-90-4-57 82-63 122-42 12 7 21 19 24 35" id="av"/><path fill="#3a414a" d="M-5 72V49h209v23H-5" id="aw"/><path fill="#3a414a" d="M85-194c31 0 48 13 60 33l-1-100h32l1 261h-30c-2-10 0-23-3-31C134-8 116 4 85 4 32 4 16-35 15-94c0-66 23-100 70-100zm9 24c-40 0-46 34-46 75 0 40 6 74 45 74 42 0 51-32 51-76 0-42-9-74-50-73" id="ax"/><g id="e"><use transform="matrix(0.05,0,0,0.05,0,0)" xlink:href="#an"/><use transform="matrix(0.05,0,0,0.05,10,0)" xlink:href="#ao"/><use transform="matrix(0.05,0,0,0.05,15.949999999999998,0)" xlink:href="#ar"/><use transform="matrix(0.05,0,0,0.05,20.95,0)" xlink:href="#as"/><use transform="matrix(0.05,0,0,0.05,24.9,0)" xlink:href="#av"/><use transform="matrix(0.05,0,0,0.05,33.9,0)" xlink:href="#ar"/><use transform="matrix(0.05,0,0,0.05,38.9,0)" xlink:href="#aw"/><use transform="matrix(0.05,0,0,0.05,48.9,0)" xlink:href="#as"/><use transform="matrix(0.05,0,0,0.05,52.85,0)" xlink:href="#ax"/></g><path fill="#3a414a" d="M117-194c89-4 53 116 60 194h-32v-121c0-31-8-49-39-48C34-167 62-67 57 0H25l-1-190h30c1 10-1 24 2 32 11-22 29-35 61-36" id="ay"/><g id="f"><use transform="matrix(0.05,0,0,0.05,0,0)" xlink:href="#as"/><use transform="matrix(0.05,0,0,0.05,3.95,0)" xlink:href="#ay"/><use transform="matrix(0.05,0,0,0.05,13.949999999999998,0)" xlink:href="#ar"/></g><path fill="#3a414a" d="M179-190L93 31C79 59 56 82 12 73V49c39 6 53-20 64-50L1-190h34L92-34l54-156h33" id="az"/><g id="g"><use transform="matrix(0.05,0,0,0.05,0,0)" xlink:href="#az"/><use transform="matrix(0.05,0,0,0.05,9,0)" xlink:href="#au"/><use transform="matrix(0.05,0,0,0.05,19,0)" xlink:href="#an"/><use transform="matrix(0.05,0,0,0.05,29,0)" xlink:href="#ao"/></g><path fill="#3a414a" d="M84 4C-5 8 30-112 23-190h32v120c0 31 7 50 39 49 72-2 45-101 50-169h31l1 190h-30c-1-10 1-25-2-33-11 22-28 36-60 37" id="aA"/><path fill="#3a414a" d="M100-194c62-1 85 37 85 99 1 63-27 99-86 99S16-35 15-95c0-66 28-99 85-99zM99-20c44 1 53-31 53-75 0-43-8-75-51-75s-53 32-53 75 10 74 51 75" id="aB"/><g id="h"><use transform="matrix(0.05,0,0,0.05,0,0)" xlink:href="#ax"/><use transform="matrix(0.05,0,0,0.05,10,0)" xlink:href="#aA"/><use transform="matrix(0.05,0,0,0.05,20,0)" xlink:href="#ao"/><use transform="matrix(0.05,0,0,0.05,25.950000000000003,0)" xlink:href="#an"/><use transform="matrix(0.05,0,0,0.05,35.95,0)" xlink:href="#ar"/><use transform="matrix(0.05,0,0,0.05,40.95,0)" xlink:href="#as"/><use transform="matrix(0.05,0,0,0.05,44.900000000000006,0)" xlink:href="#aB"/><use transform="matrix(0.05,0,0,0.05,54.900000000000006,0)" xlink:href="#ay"/></g><path fill="#3a414a" d="M101-234c-31-9-42 10-38 44h38v23H63V0H32v-167H5v-23h27c-7-52 17-82 69-68v24" id="aC"/><g id="i"><use transform="matrix(0.05,0,0,0.05,0,0)" xlink:href="#aC"/><use transform="matrix(0.05,0,0,0.05,5,0)" xlink:href="#at"/><use transform="matrix(0.05,0,0,0.05,8.95,0)" xlink:href="#aB"/><use transform="matrix(0.05,0,0,0.05,18.95,0)" xlink:href="#an"/><use transform="matrix(0.05,0,0,0.05,28.950000000000003,0)" xlink:href="#ar"/></g><path fill="#fff" d="M115-3C79 11 28 4 28-45v-112H4v-33h27l15-45h31v45h36v33H77v99c-1 23 16 31 38 25v30" id="aD"/><path fill="#fff" d="M25-224v-37h50v37H25zM25 0v-190h50V0H25" id="aE"/><path fill="#fff" d="M220-157c-53 9-28 100-34 157h-49v-107c1-27-5-49-29-50C55-147 81-57 75 0H25l-1-190h47c2 12-1 28 3 38 10-53 101-56 108 0 13-22 24-43 59-42 82 1 51 116 57 194h-49v-107c-1-25-5-48-29-50" id="aF"/><path fill="#fff" d="M185-48c-13 30-37 53-82 52C43 2 14-33 14-96s30-98 90-98c62 0 83 45 84 108H66c0 31 8 55 39 56 18 0 30-7 34-22zm-45-69c5-46-57-63-70-21-2 6-4 13-4 21h74" id="aG"/><g id="j"><use transform="matrix(0.05,0,0,0.05,0,0)" xlink:href="#aD"/><use transform="matrix(0.05,0,0,0.05,5.95,0)" xlink:href="#aE"/><use transform="matrix(0.05,0,0,0.05,10.95,0)" xlink:href="#aF"/><use transform="matrix(0.05,0,0,0.05,26.950000000000003,0)" xlink:href="#aG"/></g><path fill="#3a414a" d="M115-3C79 11 28 4 28-45v-112H4v-33h27l15-45h31v45h36v33H77v99c-1 23 16 31 38 25v30" id="aH"/><path fill="#3a414a" d="M133-34C117-15 103 5 69 4 32 3 11-16 11-54c-1-60 55-63 116-61 1-26-3-47-28-47-18 1-26 9-28 27l-52-2c7-38 36-58 82-57s74 22 75 68l1 82c-1 14 12 18 25 15v27c-30 8-71 5-69-32zm-48 3c29 0 43-24 42-57-32 0-66-3-65 30 0 17 8 27 23 27" id="aI"/><path fill="#3a414a" d="M135-150c-39-12-60 13-60 57V0H25l-1-190h47c2 13-1 29 3 40 6-28 27-53 61-41v41" id="aJ"/><path fill="#3a414a" d="M220-157c-53 9-28 100-34 157h-49v-107c1-27-5-49-29-50C55-147 81-57 75 0H25l-1-190h47c2 12-1 28 3 38 10-53 101-56 108 0 13-22 24-43 59-42 82 1 51 116 57 194h-49v-107c-1-25-5-48-29-50" id="aK"/><path fill="#3a414a" d="M185-48c-13 30-37 53-82 52C43 2 14-33 14-96s30-98 90-98c62 0 83 45 84 108H66c0 31 8 55 39 56 18 0 30-7 34-22zm-45-69c5-46-57-63-70-21-2 6-4 13-4 21h74" id="aL"/><g id="k"><use transform="matrix(0.05,0,0,0.05,0,0)" xlink:href="#af"/><use transform="matrix(0.05,0,0,0.05,10,0)" xlink:href="#aH"/><use transform="matrix(0.05,0,0,0.05,15.949999999999998,0)" xlink:href="#aI"/><use transform="matrix(0.05,0,0,0.05,25.950000000000003,0)" xlink:href="#aJ"/><use transform="matrix(0.05,0,0,0.05,32.95,0)" xlink:href="#aH"/><use transform="matrix(0.05,0,0,0.05,38.900000000000006,0)" xlink:href="#aj"/><use transform="matrix(0.05,0,0,0.05,48.900000000000006,0)" xlink:href="#aH"/><use transform="matrix(0.05,0,0,0.05,54.85,0)" xlink:href="#ak"/><use transform="matrix(0.05,0,0,0.05,59.85,0)" xlink:href="#aK"/><use transform="matrix(0.05,0,0,0.05,75.85000000000001,0)" xlink:href="#aL"/></g><path fill="#3a414a" d="M210-169c-67 3-38 105-44 169h-31v-121c0-29-5-50-35-48C34-165 62-65 56 0H25l-1-190h30c1 10-1 24 2 32 10-44 99-50 107 0 11-21 27-35 58-36 85-2 47 119 55 194h-31v-121c0-29-5-49-35-48" id="aM"/><path fill="#3a414a" d="M115-194c55 1 70 41 70 98S169 2 115 4C84 4 66-9 55-30l1 105H24l-1-265h31l2 30c10-21 28-34 59-34zm-8 174c40 0 45-34 45-75s-6-73-45-74c-42 0-51 32-51 76 0 43 10 73 51 73" id="aN"/><g id="l"><use transform="matrix(0.05,0,0,0.05,0,0)" xlink:href="#ar"/><use transform="matrix(0.05,0,0,0.05,5,0)" xlink:href="#as"/><use transform="matrix(0.05,0,0,0.05,8.95,0)" xlink:href="#aM"/><use transform="matrix(0.05,0,0,0.05,23.9,0)" xlink:href="#au"/><use transform="matrix(0.05,0,0,0.05,33.9,0)" xlink:href="#av"/><use transform="matrix(0.05,0,0,0.05,42.9,0)" xlink:href="#ar"/><use transform="matrix(0.05,0,0,0.05,47.9,0)" xlink:href="#an"/><use transform="matrix(0.05,0,0,0.05,57.900000000000006,0)" xlink:href="#aM"/><use transform="matrix(0.05,0,0,0.05,72.85,0)" xlink:href="#aN"/></g><g id="m"><use transform="matrix(0.05,0,0,0.05,0,0)" xlink:href="#aq"/><use transform="matrix(0.05,0,0,0.05,10,0)" xlink:href="#aB"/><use transform="matrix(0.05,0,0,0.05,20,0)" xlink:href="#aA"/><use transform="matrix(0.05,0,0,0.05,30,0)" xlink:href="#ao"/></g><g id="n"><use transform="matrix(0.05,0,0,0.05,0,0)" xlink:href="#ax"/><use transform="matrix(0.05,0,0,0.05,10,0)" xlink:href="#an"/><use transform="matrix(0.05,0,0,0.05,20,0)" xlink:href="#az"/></g><path fill="#3a414a" d="M206 0h-36l-40-164L89 0H53L-1-190h32L70-26l43-164h34l41 164 42-164h31" id="aO"/><path fill="#3a414a" d="M143 0L79-87 56-68V0H24v-261h32v163l83-92h37l-77 82L181 0h-38" id="aP"/><g id="o"><use transform="matrix(0.05,0,0,0.05,0,0)" xlink:href="#aO"/><use transform="matrix(0.05,0,0,0.05,12.950000000000001,0)" xlink:href="#au"/><use transform="matrix(0.05,0,0,0.05,22.950000000000003,0)" xlink:href="#au"/><use transform="matrix(0.05,0,0,0.05,32.95,0)" xlink:href="#aP"/></g><g id="p"><use transform="matrix(0.05,0,0,0.05,0,0)" xlink:href="#aM"/><use transform="matrix(0.05,0,0,0.05,14.950000000000001,0)" xlink:href="#aB"/><use transform="matrix(0.05,0,0,0.05,24.950000000000003,0)" xlink:href="#ay"/><use transform="matrix(0.05,0,0,0.05,34.95,0)" xlink:href="#ar"/><use transform="matrix(0.05,0,0,0.05,39.95,0)" xlink:href="#aq"/></g><g id="q"><use transform="matrix(0.05,0,0,0.05,0,0)" xlink:href="#aO"/><use transform="matrix(0.05,0,0,0.05,12.950000000000001,0)" xlink:href="#au"/><use transform="matrix(0.05,0,0,0.05,22.950000000000003,0)" xlink:href="#au"/><use transform="matrix(0.05,0,0,0.05,32.95,0)" xlink:href="#aP"/><use transform="matrix(0.05,0,0,0.05,41.95,0)" xlink:href="#ax"/><use transform="matrix(0.05,0,0,0.05,51.95,0)" xlink:href="#an"/><use transform="matrix(0.05,0,0,0.05,61.95,0)" xlink:href="#az"/></g><path fill="#fff" d="M133-34C117-15 103 5 69 4 32 3 11-16 11-54c-1-60 55-63 116-61 1-26-3-47-28-47-18 1-26 9-28 27l-52-2c7-38 36-58 82-57s74 22 75 68l1 82c-1 14 12 18 25 15v27c-30 8-71 5-69-32zm-48 3c29 0 43-24 42-57-32 0-66-3-65 30 0 17 8 27 23 27" id="aQ"/><path fill="#fff" d="M135-150c-39-12-60 13-60 57V0H25l-1-190h47c2 13-1 29 3 40 6-28 27-53 61-41v41" id="aR"/><g id="r"><use transform="matrix(0.05,0,0,0.05,0,0)" xlink:href="#aQ"/><use transform="matrix(0.05,0,0,0.05,10,0)" xlink:href="#aR"/><use transform="matrix(0.05,0,0,0.05,17,0)" xlink:href="#aD"/><use transform="matrix(0.05,0,0,0.05,22.95,0)" xlink:href="#aE"/><use transform="matrix(0.05,0,0,0.05,27.950000000000003,0)" xlink:href="#ab"/><use transform="matrix(0.05,0,0,0.05,37.95,0)" xlink:href="#aD"/><use transform="matrix(0.05,0,0,0.05,43.900000000000006,0)" xlink:href="#ab"/></g><g id="s"><use transform="matrix(0.05,0,0,0.05,0,0)" xlink:href="#aI"/><use transform="matrix(0.05,0,0,0.05,10,0)" xlink:href="#aJ"/><use transform="matrix(0.05,0,0,0.05,17,0)" xlink:href="#aH"/><use transform="matrix(0.05,0,0,0.05,22.95,0)" xlink:href="#ak"/><use transform="matrix(0.05,0,0,0.05,27.950000000000003,0)" xlink:href="#af"/><use transform="matrix(0.05,0,0,0.05,37.95,0)" xlink:href="#aH"/><use transform="matrix(0.05,0,0,0.05,43.900000000000006,0)" xlink:href="#aj"/><use transform="matrix(0.05,0,0,0.05,53.900000000000006,0)" xlink:href="#ak"/><use transform="matrix(0.05,0,0,0.05,58.900000000000006,0)" xlink:href="#al"/></g><g id="t"><use transform="matrix(0.05,0,0,0.05,0,0)" xlink:href="#ay"/><use transform="matrix(0.05,0,0,0.05,10,0)" xlink:href="#an"/><use transform="matrix(0.05,0,0,0.05,20,0)" xlink:href="#aM"/><use transform="matrix(0.05,0,0,0.05,34.95,0)" xlink:href="#au"/></g><g id="u"><use transform="matrix(0.05,0,0,0.05,0,0)" xlink:href="#at"/><use transform="matrix(0.05,0,0,0.05,3.95,0)" xlink:href="#aB"/><use transform="matrix(0.05,0,0,0.05,13.949999999999998,0)" xlink:href="#ap"/><use transform="matrix(0.05,0,0,0.05,22.95,0)" xlink:href="#an"/><use transform="matrix(0.05,0,0,0.05,32.95,0)" xlink:href="#ar"/><use transform="matrix(0.05,0,0,0.05,37.95,0)" xlink:href="#as"/><use transform="matrix(0.05,0,0,0.05,41.900000000000006,0)" xlink:href="#aB"/><use transform="matrix(0.05,0,0,0.05,51.900000000000006,0)" xlink:href="#ay"/></g><g id="v"><use transform="matrix(0.05,0,0,0.05,0,0)" xlink:href="#at"/><use transform="matrix(0.05,0,0,0.05,3.95,0)" xlink:href="#an"/><use transform="matrix(0.05,0,0,0.05,13.949999999999998,0)" xlink:href="#ar"/><use transform="matrix(0.05,0,0,0.05,18.95,0)" xlink:href="#as"/><use transform="matrix(0.05,0,0,0.05,22.9,0)" xlink:href="#ar"/><use transform="matrix(0.05,0,0,0.05,27.899999999999995,0)" xlink:href="#aA"/><use transform="matrix(0.05,0,0,0.05,37.9,0)" xlink:href="#ax"/><use transform="matrix(0.05,0,0,0.05,47.9,0)" xlink:href="#au"/></g><path fill="#3a414a" d="M177-190C167-65 218 103 67 71c-23-6-38-20-44-43l32-5c15 47 100 32 89-28v-30C133-14 115 1 83 1 29 1 15-40 15-95c0-56 16-97 71-98 29-1 48 16 59 35 1-10 0-23 2-32h30zM94-22c36 0 50-32 50-73 0-42-14-75-50-75-39 0-46 34-46 75s6 73 46 73" id="aS"/><g id="w"><use transform="matrix(0.05,0,0,0.05,0,0)" xlink:href="#at"/><use transform="matrix(0.05,0,0,0.05,3.95,0)" xlink:href="#aB"/><use transform="matrix(0.05,0,0,0.05,13.949999999999998,0)" xlink:href="#ay"/><use transform="matrix(0.05,0,0,0.05,23.95,0)" xlink:href="#aS"/><use transform="matrix(0.05,0,0,0.05,33.95,0)" xlink:href="#as"/><use transform="matrix(0.05,0,0,0.05,37.900000000000006,0)" xlink:href="#ar"/><use transform="matrix(0.05,0,0,0.05,42.900000000000006,0)" xlink:href="#aA"/><use transform="matrix(0.05,0,0,0.05,52.900000000000006,0)" xlink:href="#ax"/><use transform="matrix(0.05,0,0,0.05,62.900000000000006,0)" xlink:href="#au"/></g><path fill="#fff" d="M85 4C-2 5 27-109 22-190h50c7 57-23 150 33 157 60-5 35-97 40-157h50l1 190h-47c-2-12 1-28-3-38-12 25-28 42-61 42" id="aT"/><g id="x"><use transform="matrix(0.05,0,0,0.05,0,0)" xlink:href="#aT"/><use transform="matrix(0.05,0,0,0.05,10.950000000000001,0)" xlink:href="#ab"/><use transform="matrix(0.05,0,0,0.05,20.950000000000003,0)" xlink:href="#aG"/><use transform="matrix(0.05,0,0,0.05,30.950000000000003,0)" xlink:href="#aR"/><use transform="matrix(0.05,0,0,0.05,37.95,0)" xlink:href="#ab"/></g><path fill="#3a414a" d="M85 4C-2 5 27-109 22-190h50c7 57-23 150 33 157 60-5 35-97 40-157h50l1 190h-47c-2-12 1-28-3-38-12 25-28 42-61 42" id="aU"/><g id="y"><use transform="matrix(0.05,0,0,0.05,0,0)" xlink:href="#aU"/><use transform="matrix(0.05,0,0,0.05,10.950000000000001,0)" xlink:href="#af"/><use transform="matrix(0.05,0,0,0.05,20.950000000000003,0)" xlink:href="#aL"/><use transform="matrix(0.05,0,0,0.05,30.950000000000003,0)" xlink:href="#aJ"/><use transform="matrix(0.05,0,0,0.05,37.95,0)" xlink:href="#aj"/><use transform="matrix(0.05,0,0,0.05,47.95,0)" xlink:href="#ak"/><use transform="matrix(0.05,0,0,0.05,52.95,0)" xlink:href="#al"/></g><g id="z"><use transform="matrix(0.05,0,0,0.05,0,0)" xlink:href="#aC"/><use transform="matrix(0.05,0,0,0.05,5,0)" xlink:href="#as"/><use transform="matrix(0.05,0,0,0.05,8.95,0)" xlink:href="#ao"/><use transform="matrix(0.05,0,0,0.05,14.899999999999999,0)" xlink:href="#av"/><use transform="matrix(0.05,0,0,0.05,23.9,0)" xlink:href="#ar"/><use transform="matrix(0.05,0,0,0.05,28.899999999999995,0)" xlink:href="#aw"/><use transform="matrix(0.05,0,0,0.05,38.9,0)" xlink:href="#ay"/><use transform="matrix(0.05,0,0,0.05,48.9,0)" xlink:href="#an"/><use transform="matrix(0.05,0,0,0.05,58.900000000000006,0)" xlink:href="#aM"/><use transform="matrix(0.05,0,0,0.05,73.85,0)" xlink:href="#au"/></g><g id="A"><use transform="matrix(0.05,0,0,0.05,0,0)" xlink:href="#at"/><use transform="matrix(0.05,0,0,0.05,3.95,0)" xlink:href="#an"/><use transform="matrix(0.05,0,0,0.05,13.949999999999998,0)" xlink:href="#av"/><use transform="matrix(0.05,0,0,0.05,22.95,0)" xlink:href="#ar"/><use transform="matrix(0.05,0,0,0.05,27.950000000000003,0)" xlink:href="#aw"/><use transform="matrix(0.05,0,0,0.05,37.95,0)" xlink:href="#ay"/><use transform="matrix(0.05,0,0,0.05,47.95,0)" xlink:href="#an"/><use transform="matrix(0.05,0,0,0.05,57.95,0)" xlink:href="#aM"/><use transform="matrix(0.05,0,0,0.05,72.9,0)" xlink:href="#au"/></g><g id="B"><use transform="matrix(0.05,0,0,0.05,0,0)" xlink:href="#aS"/><use transform="matrix(0.05,0,0,0.05,10,0)" xlink:href="#au"/><use transform="matrix(0.05,0,0,0.05,20,0)" xlink:href="#ay"/><use transform="matrix(0.05,0,0,0.05,30,0)" xlink:href="#ax"/><use transform="matrix(0.05,0,0,0.05,40,0)" xlink:href="#au"/><use transform="matrix(0.05,0,0,0.05,50,0)" xlink:href="#ao"/></g><path fill="#3a414a" d="M87 75C49 33 22-17 22-94c0-76 28-126 65-167h31c-38 41-64 92-64 168S80 34 118 75H87" id="aV"/><path fill="#3a414a" d="M27 0v-27h64v-190l-56 39v-29l58-41h29v221h61V0H27" id="aW"/><path fill="#3a414a" d="M33-261c38 41 65 92 65 168S71 34 33 75H2C39 34 66-17 66-93S39-220 2-261h31" id="aX"/><g id="C"><use transform="matrix(0.05,0,0,0.05,0,0)" xlink:href="#ap"/><use transform="matrix(0.05,0,0,0.05,9,0)" xlink:href="#aq"/><use transform="matrix(0.05,0,0,0.05,19,0)" xlink:href="#an"/><use transform="matrix(0.05,0,0,0.05,29,0)" xlink:href="#ao"/><use transform="matrix(0.05,0,0,0.05,34.95,0)" xlink:href="#aV"/><use transform="matrix(0.05,0,0,0.05,40.900000000000006,0)" xlink:href="#aW"/><use transform="matrix(0.05,0,0,0.05,50.900000000000006,0)" xlink:href="#aX"/></g><g id="D"><use transform="matrix(0.05,0,0,0.05,0,0)" xlink:href="#at"/><use transform="matrix(0.05,0,0,0.05,3.95,0)" xlink:href="#au"/><use transform="matrix(0.05,0,0,0.05,13.949999999999998,0)" xlink:href="#am"/><use transform="matrix(0.05,0,0,0.05,22.95,0)" xlink:href="#au"/><use transform="matrix(0.05,0,0,0.05,32.95,0)" xlink:href="#at"/></g><path fill="#a9afb8" d="M24-248c120-7 223 5 221 122C244-46 201 0 124 0H24v-248zM76-40c74 7 117-18 117-86 0-67-45-88-117-82v168" id="aY"/><path fill="#a9afb8" d="M133-34C117-15 103 5 69 4 32 3 11-16 11-54c-1-60 55-63 116-61 1-26-3-47-28-47-18 1-26 9-28 27l-52-2c7-38 36-58 82-57s74 22 75 68l1 82c-1 14 12 18 25 15v27c-30 8-71 5-69-32zm-48 3c29 0 43-24 42-57-32 0-66-3-65 30 0 17 8 27 23 27" id="aZ"/><path fill="#a9afb8" d="M115-3C79 11 28 4 28-45v-112H4v-33h27l15-45h31v45h36v33H77v99c-1 23 16 31 38 25v30" id="ba"/><path fill="#a9afb8" d="M135-194c52 0 70 43 70 98 0 56-19 99-73 100-30 1-46-15-58-35L72 0H24l1-261h50v104c11-23 29-37 60-37zM114-30c31 0 40-27 40-66 0-37-7-63-39-63s-41 28-41 65c0 36 8 64 40 64" id="bb"/><path fill="#a9afb8" d="M137-138c1-29-70-34-71-4 15 46 118 7 119 86 1 83-164 76-172 9l43-7c4 19 20 25 44 25 33 8 57-30 24-41C81-84 22-81 20-136c-2-80 154-74 161-7" id="bc"/><path fill="#a9afb8" d="M185-48c-13 30-37 53-82 52C43 2 14-33 14-96s30-98 90-98c62 0 83 45 84 108H66c0 31 8 55 39 56 18 0 30-7 34-22zm-45-69c5-46-57-63-70-21-2 6-4 13-4 21h74" id="bd"/><g id="E"><use transform="matrix(0.0728395061728395,0,0,0.0728395061728395,0,0)" xlink:href="#aY"/><use transform="matrix(0.0728395061728395,0,0,0.0728395061728395,18.86543209876543,0)" xlink:href="#aZ"/><use transform="matrix(0.0728395061728395,0,0,0.0728395061728395,33.43333333333333,0)" xlink:href="#ba"/><use transform="matrix(0.0728395061728395,0,0,0.0728395061728395,42.10123456790124,0)" xlink:href="#aZ"/><use transform="matrix(0.0728395061728395,0,0,0.0728395061728395,56.66913580246913,0)" xlink:href="#bb"/><use transform="matrix(0.0728395061728395,0,0,0.0728395061728395,72.62098765432098,0)" xlink:href="#aZ"/><use transform="matrix(0.0728395061728395,0,0,0.0728395061728395,87.18888888888888,0)" xlink:href="#bc"/><use transform="matrix(0.0728395061728395,0,0,0.0728395061728395,101.75679012345678,0)" xlink:href="#bd"/></g><path fill="#a9afb8" d="M24 0v-248h195v40H76v63h132v40H76v65h150V0H24" id="be"/><path fill="#a9afb8" d="M240-174c0 40-23 61-54 70L253 0h-59l-57-94H76V0H24v-248c93 4 217-23 216 74zM76-134c48-2 112 12 112-38 0-48-66-32-112-35v73" id="bf"/><g id="F"><use transform="matrix(0.0728395061728395,0,0,0.0728395061728395,0,0)" xlink:href="#be"/><use transform="matrix(0.0728395061728395,0,0,0.0728395061728395,17.48148148148148,0)" xlink:href="#bf"/></g><path fill="#a9afb8" d="M25-224v-37h50v37H25zM25 0v-190h50V0H25" id="bg"/><path fill="#a9afb8" d="M195-6C206 82 75 100 31 46c-4-6-6-13-8-21l49-6c3 16 16 24 34 25 40 0 42-37 40-79-11 22-30 35-61 35-53 0-70-43-70-97 0-56 18-96 73-97 30 0 46 14 59 34l2-30h47zm-90-29c32 0 41-27 41-63 0-35-9-62-40-62-32 0-39 29-40 63 0 36 9 62 39 62" id="bh"/><path fill="#a9afb8" d="M135-150c-39-12-60 13-60 57V0H25l-1-190h47c2 13-1 29 3 40 6-28 27-53 61-41v41" id="bi"/><path fill="#a9afb8" d="M220-157c-53 9-28 100-34 157h-49v-107c1-27-5-49-29-50C55-147 81-57 75 0H25l-1-190h47c2 12-1 28 3 38 10-53 101-56 108 0 13-22 24-43 59-42 82 1 51 116 57 194h-49v-107c-1-25-5-48-29-50" id="bj"/><g id="G"><use transform="matrix(0.0728395061728395,0,0,0.0728395061728395,0,0)" xlink:href="#aY"/><use transform="matrix(0.0728395061728395,0,0,0.0728395061728395,18.86543209876543,0)" xlink:href="#bg"/><use transform="matrix(0.0728395061728395,0,0,0.0728395061728395,26.14938271604938,0)" xlink:href="#aZ"/><use transform="matrix(0.0728395061728395,0,0,0.0728395061728395,40.717283950617286,0)" xlink:href="#bh"/><use transform="matrix(0.0728395061728395,0,0,0.0728395061728395,56.66913580246913,0)" xlink:href="#bi"/><use transform="matrix(0.0728395061728395,0,0,0.0728395061728395,66.86666666666666,0)" xlink:href="#aZ"/><use transform="matrix(0.0728395061728395,0,0,0.0728395061728395,81.43456790123457,0)" xlink:href="#bj"/></g><path fill="#3a414a" d="M135-194c53 0 70 44 70 98 0 56-19 98-73 100-31 1-45-17-59-34 3 33 2 69 2 105H25l-1-265h48c2 10 0 23 3 31 11-24 29-35 60-35zM114-30c33 0 39-31 40-66 0-38-9-64-40-64-56 0-55 130 0 130" id="bk"/><path fill="#3a414a" d="M25 0v-261h50V0H25" id="bl"/><path fill="#3a414a" d="M123 10C108 53 80 86 19 72V37c35 8 53-11 59-39L3-190h52l48 148c12-52 28-100 44-148h51" id="bm"/><g id="H"><use transform="matrix(0.05,0,0,0.05,0,0)" xlink:href="#af"/><use transform="matrix(0.05,0,0,0.05,10,0)" xlink:href="#ag"/><use transform="matrix(0.05,0,0,0.05,20.950000000000003,0)" xlink:href="#ah"/><use transform="matrix(0.05,0,0,0.05,31.900000000000006,0)" xlink:href="#ai"/><use transform="matrix(0.05,0,0,0.05,42.85000000000001,0)" xlink:href="#bk"/><use transform="matrix(0.05,0,0,0.05,53.80000000000001,0)" xlink:href="#bl"/><use transform="matrix(0.05,0,0,0.05,58.80000000000001,0)" xlink:href="#aI"/><use transform="matrix(0.05,0,0,0.05,68.80000000000001,0)" xlink:href="#bm"/><use transform="matrix(0.05,0,0,0.05,78.80000000000001,0)" xlink:href="#af"/></g><path fill="#3a414a" d="M30-248c87 1 191-15 191 75 0 78-77 80-158 76V0H30v-248zm33 125c57 0 124 11 124-50 0-59-68-47-124-48v98" id="bn"/><path fill="#3a414a" d="M194 0L95-120 63-95V0H30v-248h33v124l119-124h40L117-140 236 0h-42" id="bo"/><g id="I"><use transform="matrix(0.05,0,0,0.05,0,0)" xlink:href="#bn"/><use transform="matrix(0.05,0,0,0.05,12,0)" xlink:href="#bo"/></g><g id="J"><use transform="matrix(0.05,0,0,0.05,0,0)" xlink:href="#av"/><use transform="matrix(0.05,0,0,0.05,9,0)" xlink:href="#aB"/><use transform="matrix(0.05,0,0,0.05,19,0)" xlink:href="#ay"/><use transform="matrix(0.05,0,0,0.05,29,0)" xlink:href="#aS"/><use transform="matrix(0.05,0,0,0.05,39,0)" xlink:href="#aN"/><use transform="matrix(0.05,0,0,0.05,49,0)" xlink:href="#at"/><use transform="matrix(0.05,0,0,0.05,52.95,0)" xlink:href="#an"/><use transform="matrix(0.05,0,0,0.05,62.95,0)" xlink:href="#az"/><use transform="matrix(0.05,0,0,0.05,71.95,0)" xlink:href="#aw"/><use transform="matrix(0.05,0,0,0.05,81.95,0)" xlink:href="#as"/><use transform="matrix(0.05,0,0,0.05,85.9,0)" xlink:href="#ax"/></g><g id="K"><use transform="matrix(0.05,0,0,0.05,0,0)" xlink:href="#as"/><use transform="matrix(0.05,0,0,0.05,3.95,0)" xlink:href="#ay"/><use transform="matrix(0.05,0,0,0.05,13.949999999999998,0)" xlink:href="#ar"/></g><g id="L"><use transform="matrix(0.05,0,0,0.05,0,0)" xlink:href="#av"/><use transform="matrix(0.05,0,0,0.05,9,0)" xlink:href="#ar"/><use transform="matrix(0.05,0,0,0.05,14,0)" xlink:href="#an"/><use transform="matrix(0.05,0,0,0.05,24,0)" xlink:href="#ao"/><use transform="matrix(0.05,0,0,0.05,29.950000000000003,0)" xlink:href="#ar"/><use transform="matrix(0.05,0,0,0.05,34.95,0)" xlink:href="#aw"/><use transform="matrix(0.05,0,0,0.05,44.95,0)" xlink:href="#ar"/><use transform="matrix(0.05,0,0,0.05,49.95,0)" xlink:href="#as"/><use transform="matrix(0.05,0,0,0.05,53.900000000000006,0)" xlink:href="#aM"/><use transform="matrix(0.05,0,0,0.05,68.85000000000001,0)" xlink:href="#au"/></g><g id="M"><use transform="matrix(0.05,0,0,0.05,0,0)" xlink:href="#aA"/><use transform="matrix(0.05,0,0,0.05,10,0)" xlink:href="#av"/><use transform="matrix(0.05,0,0,0.05,19,0)" xlink:href="#au"/><use transform="matrix(0.05,0,0,0.05,29,0)" xlink:href="#ao"/><use transform="matrix(0.05,0,0,0.05,34.95,0)" xlink:href="#aw"/><use transform="matrix(0.05,0,0,0.05,44.95,0)" xlink:href="#as"/><use transform="matrix(0.05,0,0,0.05,48.900000000000006,0)" xlink:href="#ax"/></g><g id="N"><use transform="matrix(0.05,0,0,0.05,0,0)" xlink:href="#at"/><use transform="matrix(0.05,0,0,0.05,3.95,0)" xlink:href="#au"/><use transform="matrix(0.05,0,0,0.05,13.949999999999998,0)" xlink:href="#am"/><use transform="matrix(0.05,0,0,0.05,22.95,0)" xlink:href="#au"/><use transform="matrix(0.05,0,0,0.05,32.95,0)" xlink:href="#at"/></g><g id="O"><use transform="matrix(0.05,0,0,0.05,0,0)" xlink:href="#av"/><use transform="matrix(0.05,0,0,0.05,9,0)" xlink:href="#aB"/><use transform="matrix(0.05,0,0,0.05,19,0)" xlink:href="#ay"/><use transform="matrix(0.05,0,0,0.05,29,0)" xlink:href="#aS"/><use transform="matrix(0.05,0,0,0.05,39,0)" xlink:href="#aw"/><use transform="matrix(0.05,0,0,0.05,49,0)" xlink:href="#as"/><use transform="matrix(0.05,0,0,0.05,52.95,0)" xlink:href="#ax"/></g><g id="P"><use transform="matrix(0.05,0,0,0.05,0,0)" xlink:href="#an"/><use transform="matrix(0.05,0,0,0.05,10,0)" xlink:href="#ao"/><use transform="matrix(0.05,0,0,0.05,15.949999999999998,0)" xlink:href="#ar"/><use transform="matrix(0.05,0,0,0.05,20.95,0)" xlink:href="#as"/><use transform="matrix(0.05,0,0,0.05,24.9,0)" xlink:href="#av"/><use transform="matrix(0.05,0,0,0.05,33.9,0)" xlink:href="#ar"/><use transform="matrix(0.05,0,0,0.05,38.9,0)" xlink:href="#aw"/><use transform="matrix(0.05,0,0,0.05,48.9,0)" xlink:href="#as"/><use transform="matrix(0.05,0,0,0.05,52.85,0)" xlink:href="#ax"/></g><g id="Q"><use transform="matrix(0.05,0,0,0.05,0,0)" xlink:href="#av"/><use transform="matrix(0.05,0,0,0.05,9,0)" xlink:href="#au"/><use transform="matrix(0.05,0,0,0.05,19,0)" xlink:href="#av"/><use transform="matrix(0.05,0,0,0.05,28,0)" xlink:href="#av"/><use transform="matrix(0.05,0,0,0.05,37,0)" xlink:href="#as"/><use transform="matrix(0.05,0,0,0.05,40.95,0)" xlink:href="#aB"/><use transform="matrix(0.05,0,0,0.05,50.95,0)" xlink:href="#ay"/><use transform="matrix(0.05,0,0,0.05,60.95,0)" xlink:href="#aw"/><use transform="matrix(0.05,0,0,0.05,70.95,0)" xlink:href="#as"/><use transform="matrix(0.05,0,0,0.05,74.9,0)" xlink:href="#ax"/></g><g id="R"><use transform="matrix(0.05,0,0,0.05,0,0)" xlink:href="#at"/><use transform="matrix(0.05,0,0,0.05,3.95,0)" xlink:href="#aB"/><use transform="matrix(0.05,0,0,0.05,13.949999999999998,0)" xlink:href="#ap"/><use transform="matrix(0.05,0,0,0.05,22.95,0)" xlink:href="#an"/><use transform="matrix(0.05,0,0,0.05,32.95,0)" xlink:href="#ar"/><use transform="matrix(0.05,0,0,0.05,37.95,0)" xlink:href="#as"/><use transform="matrix(0.05,0,0,0.05,41.900000000000006,0)" xlink:href="#aB"/><use transform="matrix(0.05,0,0,0.05,51.900000000000006,0)" xlink:href="#ay"/></g><g id="S"><use transform="matrix(0.05,0,0,0.05,0,0)" xlink:href="#am"/><use transform="matrix(0.05,0,0,0.05,9,0)" xlink:href="#an"/><use transform="matrix(0.05,0,0,0.05,19,0)" xlink:href="#ao"/><use transform="matrix(0.05,0,0,0.05,24.95,0)" xlink:href="#ap"/><use transform="matrix(0.05,0,0,0.05,33.95,0)" xlink:href="#aq"/><use transform="matrix(0.05,0,0,0.05,43.95,0)" xlink:href="#an"/><use transform="matrix(0.05,0,0,0.05,53.95,0)" xlink:href="#ao"/></g><g id="T"><use transform="matrix(0.05,0,0,0.05,0,0)" xlink:href="#aA"/><use transform="matrix(0.05,0,0,0.05,10,0)" xlink:href="#av"/><use transform="matrix(0.05,0,0,0.05,19,0)" xlink:href="#au"/><use transform="matrix(0.05,0,0,0.05,29,0)" xlink:href="#ao"/><use transform="matrix(0.05,0,0,0.05,34.95,0)" xlink:href="#aw"/><use transform="matrix(0.05,0,0,0.05,44.95,0)" xlink:href="#an"/><use transform="matrix(0.05,0,0,0.05,54.95,0)" xlink:href="#aS"/><use transform="matrix(0.05,0,0,0.05,64.95,0)" xlink:href="#au"/><use transform="matrix(0.05,0,0,0.05,74.95,0)" xlink:href="#ay"/><use transform="matrix(0.05,0,0,0.05,84.95,0)" xlink:href="#ar"/></g><path fill="#fff" d="M135-194c53 0 70 44 70 98 0 56-19 98-73 100-31 1-45-17-59-34 3 33 2 69 2 105H25l-1-265h48c2 10 0 23 3 31 11-24 29-35 60-35zM114-30c33 0 39-31 40-66 0-38-9-64-40-64-56 0-55 130 0 130" id="bp"/><path fill="#fff" d="M25 0v-261h50V0H25" id="bq"/><path fill="#fff" d="M123 10C108 53 80 86 19 72V37c35 8 53-11 59-39L3-190h52l48 148c12-52 28-100 44-148h51" id="br"/><g id="U"><use transform="matrix(0.05,0,0,0.05,0,0)" xlink:href="#ab"/><use transform="matrix(0.05,0,0,0.05,10,0)" xlink:href="#ac"/><use transform="matrix(0.05,0,0,0.05,20.950000000000003,0)" xlink:href="#ad"/><use transform="matrix(0.05,0,0,0.05,31.900000000000006,0)" xlink:href="#ae"/><use transform="matrix(0.05,0,0,0.05,42.85000000000001,0)" xlink:href="#bp"/><use transform="matrix(0.05,0,0,0.05,53.80000000000001,0)" xlink:href="#bq"/><use transform="matrix(0.05,0,0,0.05,58.80000000000001,0)" xlink:href="#aQ"/><use transform="matrix(0.05,0,0,0.05,68.80000000000001,0)" xlink:href="#br"/><use transform="matrix(0.05,0,0,0.05,78.80000000000001,0)" xlink:href="#ab"/></g><g id="V"><use transform="matrix(0.05,0,0,0.05,0,0)" xlink:href="#af"/><use transform="matrix(0.05,0,0,0.05,10,0)" xlink:href="#ag"/><use transform="matrix(0.05,0,0,0.05,20.950000000000003,0)" xlink:href="#ah"/><use transform="matrix(0.05,0,0,0.05,31.900000000000006,0)" xlink:href="#ai"/><use transform="matrix(0.05,0,0,0.05,42.85000000000001,0)" xlink:href="#bk"/><use transform="matrix(0.05,0,0,0.05,53.80000000000001,0)" xlink:href="#bl"/><use transform="matrix(0.05,0,0,0.05,58.80000000000001,0)" xlink:href="#aI"/><use transform="matrix(0.05,0,0,0.05,68.80000000000001,0)" xlink:href="#bm"/><use transform="matrix(0.05,0,0,0.05,78.80000000000001,0)" xlink:href="#aj"/><use transform="matrix(0.05,0,0,0.05,88.80000000000001,0)" xlink:href="#ak"/><use transform="matrix(0.05,0,0,0.05,93.80000000000001,0)" xlink:href="#al"/></g><g id="W"><use transform="matrix(0.05,0,0,0.05,0,0)" xlink:href="#av"/><use transform="matrix(0.05,0,0,0.05,9,0)" xlink:href="#ar"/><use transform="matrix(0.05,0,0,0.05,14,0)" xlink:href="#an"/><use transform="matrix(0.05,0,0,0.05,24,0)" xlink:href="#ao"/><use transform="matrix(0.05,0,0,0.05,29.950000000000003,0)" xlink:href="#ar"/><use transform="matrix(0.05,0,0,0.05,34.95,0)" xlink:href="#aw"/><use transform="matrix(0.05,0,0,0.05,44.95,0)" xlink:href="#ar"/><use transform="matrix(0.05,0,0,0.05,49.95,0)" xlink:href="#as"/><use transform="matrix(0.05,0,0,0.05,53.900000000000006,0)" xlink:href="#aM"/><use transform="matrix(0.05,0,0,0.05,68.85000000000001,0)" xlink:href="#au"/></g><g id="X"><use transform="matrix(0.05,0,0,0.05,0,0)" xlink:href="#aA"/><use transform="matrix(0.05,0,0,0.05,10,0)" xlink:href="#av"/><use transform="matrix(0.05,0,0,0.05,19,0)" xlink:href="#au"/><use transform="matrix(0.05,0,0,0.05,29,0)" xlink:href="#ao"/><use transform="matrix(0.05,0,0,0.05,34.95,0)" xlink:href="#aw"/><use transform="matrix(0.05,0,0,0.05,44.95,0)" xlink:href="#as"/><use transform="matrix(0.05,0,0,0.05,48.900000000000006,0)" xlink:href="#ax"/></g><g id="Y"><use transform="matrix(0.05,0,0,0.05,0,0)" xlink:href="#av"/><use transform="matrix(0.05,0,0,0.05,9,0)" xlink:href="#aB"/><use transform="matrix(0.05,0,0,0.05,19,0)" xlink:href="#ay"/><use transform="matrix(0.05,0,0,0.05,29,0)" xlink:href="#aS"/><use transform="matrix(0.05,0,0,0.05,39,0)" xlink:href="#aw"/><use transform="matrix(0.05,0,0,0.05,49,0)" xlink:href="#as"/><use transform="matrix(0.05,0,0,0.05,52.95,0)" xlink:href="#ax"/></g><g id="Z"><use transform="matrix(0.05,0,0,0.05,0,0)" xlink:href="#av"/><use transform="matrix(0.05,0,0,0.05,9,0)" xlink:href="#au"/><use transform="matrix(0.05,0,0,0.05,19,0)" xlink:href="#av"/><use transform="matrix(0.05,0,0,0.05,28,0)" xlink:href="#av"/><use transform="matrix(0.05,0,0,0.05,37,0)" xlink:href="#as"/><use transform="matrix(0.05,0,0,0.05,40.95,0)" xlink:href="#aB"/><use transform="matrix(0.05,0,0,0.05,50.95,0)" xlink:href="#ay"/><use transform="matrix(0.05,0,0,0.05,60.95,0)" xlink:href="#aw"/><use transform="matrix(0.05,0,0,0.05,70.95,0)" xlink:href="#as"/><use transform="matrix(0.05,0,0,0.05,74.9,0)" xlink:href="#ax"/></g><g id="aa"><use transform="matrix(0.05,0,0,0.05,0,0)" xlink:href="#aA"/><use transform="matrix(0.05,0,0,0.05,10,0)" xlink:href="#av"/><use transform="matrix(0.05,0,0,0.05,19,0)" xlink:href="#au"/><use transform="matrix(0.05,0,0,0.05,29,0)" xlink:href="#ao"/><use transform="matrix(0.05,0,0,0.05,34.95,0)" xlink:href="#aw"/><use transform="matrix(0.05,0,0,0.05,44.95,0)" xlink:href="#an"/><use transform="matrix(0.05,0,0,0.05,54.95,0)" xlink:href="#aS"/><use transform="matrix(0.05,0,0,0.05,64.95,0)" xlink:href="#au"/><use transform="matrix(0.05,0,0,0.05,74.95,0)" xlink:href="#ay"/><use transform="matrix(0.05,0,0,0.05,84.95,0)" xlink:href="#ar"/></g></defs></g></svg>